<svg text-rendering="geometricPrecision" shape-rendering="geometricPrecision" 
viewBox="188.4 98 25.200000000000003 150" xmlns:xlink="http://www.w3.org/1999/xlink" xmlns="http://www.w3.org/2000/svg" id="eVxHqMk0tTI1" style="max-height: 500px" width="25.200000000000003" 
height="124.8"><path stroke-width="1.5" stroke="#fffff2" fill="none" transform="translate(.000001 0)" d="M139.46828,104.41335c0,28.30175,0,56.6035,0,84.90525c0,8.59717-.71451,17.55062,0,26.12469.0695.83396.88652,13.20873.59374,13.06235-3.16733-1.58366-.59374-26.45287-.59374-30.87464c0-31.5473,1.18749-62.91732,1.18749-94.40514"/><path stroke-width="1.5" stroke="#fffff2" fill="none" d="M138.83736,228.70348c-.46192,2.30961,6.45704,5.22515,6.45704,2.8698c0-1.34031-10.40301-1.42689-10.40301,2.15235c0,3.18867,10.40301.64343,10.40301-.35872c0-1.03166-18.30113,3.94597-2.51107,3.94597"/><path stroke-width="1.5" stroke="#fffff2" fill="none" d="M135.96756,238.74777c0,8.75133-9.12061,16.83754-6.09832,24.39327c5.78609,14.46523,28.44916,14.41546,25.11072-3.94597-1.57263-8.64945-11.62913-10.79398-13.63153-20.80602"/><path stroke-width="1.5" stroke="#fffff2" fill="none" transform="translate(.000001 0)" d="M137.4635,239.11127c0,3.2233,2.0136,20.6273-.60167,22.26185-1.85138,1.15711-3.17366-1.76532-2.70752-3.00836c2.59681-6.92482,14.27276,2.68846,9.92758,3.30919-3.46396.49485-4.93476-18.65707-5.41504-21.0585"/><path stroke-width="1.5" stroke="#fffff2" fill="none" d="M199.69299,104.28132c0,26.08778,0,52.17557,0,78.26335c0,8.19778-.08977,16.38499.38937,24.5303.04356.74047,1.47464,11.6811,1.16811,11.6811-1.68903,0-1.16811-18.15774-1.16811-20.24723c0-1.42769,0-2.85538,0-4.28307c0-28.41609.38937-56.90102.38937-85.27201"/><path stroke-width="1.5" stroke="#fffff2" fill="none" transform="translate(.000001 0)" d="M201.57238,218.76693c-5.77304,0-1.73085,6.09616.6405,4.91048c2.98039-1.49019.15205-4.05649-1.92149-4.05649"/></svg>